<mxfile host="app.diagrams.net" modified="2023-02-05T08:55:06.554Z" agent="5.0 (Windows NT 10.0; Win64; x64) AppleWebKit/537.36 (KHTML, like Gecko) Chrome/109.0.0.0 Safari/537.36" etag="vAKclxv0eHd3iQZ9OVrl" version="20.8.16" type="github">
  <diagram id="C5RBs43oDa-KdzZeNtuy" name="Page-1">
    <mxGraphModel dx="880" dy="427" grid="1" gridSize="10" guides="1" tooltips="1" connect="1" arrows="1" fold="1" page="1" pageScale="1" pageWidth="827" pageHeight="1169" math="0" shadow="0">
      <root>
        <mxCell id="WIyWlLk6GJQsqaUBKTNV-0" />
        <mxCell id="WIyWlLk6GJQsqaUBKTNV-1" parent="WIyWlLk6GJQsqaUBKTNV-0" />
        <mxCell id="RHoJOa1FBb7VlP-jwkgH-0" value="Start" style="ellipse;whiteSpace=wrap;html=1;" vertex="1" parent="WIyWlLk6GJQsqaUBKTNV-1">
          <mxGeometry x="294" y="20" width="120" height="40" as="geometry" />
        </mxCell>
        <mxCell id="RHoJOa1FBb7VlP-jwkgH-1" value="" style="endArrow=classic;html=1;rounded=0;exitX=0.5;exitY=1;exitDx=0;exitDy=0;entryX=0.5;entryY=0;entryDx=0;entryDy=0;" edge="1" parent="WIyWlLk6GJQsqaUBKTNV-1" source="RHoJOa1FBb7VlP-jwkgH-0" target="RHoJOa1FBb7VlP-jwkgH-2">
          <mxGeometry width="50" height="50" relative="1" as="geometry">
            <mxPoint x="530" y="260" as="sourcePoint" />
            <mxPoint x="550" y="90" as="targetPoint" />
          </mxGeometry>
        </mxCell>
        <mxCell id="RHoJOa1FBb7VlP-jwkgH-2" value="Input Number 1, Number 2" style="shape=parallelogram;perimeter=parallelogramPerimeter;whiteSpace=wrap;html=1;fixedSize=1;" vertex="1" parent="WIyWlLk6GJQsqaUBKTNV-1">
          <mxGeometry x="294" y="90" width="120" height="40" as="geometry" />
        </mxCell>
        <mxCell id="RHoJOa1FBb7VlP-jwkgH-3" value="Answer 1 = Number1 + Number 2" style="rounded=0;whiteSpace=wrap;html=1;" vertex="1" parent="WIyWlLk6GJQsqaUBKTNV-1">
          <mxGeometry x="250" y="160" width="200" height="30" as="geometry" />
        </mxCell>
        <mxCell id="RHoJOa1FBb7VlP-jwkgH-5" value="" style="endArrow=classic;html=1;rounded=0;exitX=0.5;exitY=1;exitDx=0;exitDy=0;" edge="1" parent="WIyWlLk6GJQsqaUBKTNV-1" source="RHoJOa1FBb7VlP-jwkgH-2">
          <mxGeometry width="50" height="50" relative="1" as="geometry">
            <mxPoint x="353.5" y="140" as="sourcePoint" />
            <mxPoint x="354" y="160" as="targetPoint" />
          </mxGeometry>
        </mxCell>
        <mxCell id="RHoJOa1FBb7VlP-jwkgH-15" value="" style="edgeStyle=orthogonalEdgeStyle;rounded=0;orthogonalLoop=1;jettySize=auto;html=1;" edge="1" parent="WIyWlLk6GJQsqaUBKTNV-1" source="RHoJOa1FBb7VlP-jwkgH-7" target="RHoJOa1FBb7VlP-jwkgH-8">
          <mxGeometry relative="1" as="geometry" />
        </mxCell>
        <mxCell id="RHoJOa1FBb7VlP-jwkgH-7" value="Answer 3 = Number1 / Number 2" style="rounded=0;whiteSpace=wrap;html=1;" vertex="1" parent="WIyWlLk6GJQsqaUBKTNV-1">
          <mxGeometry x="250" y="260" width="200" height="30" as="geometry" />
        </mxCell>
        <mxCell id="RHoJOa1FBb7VlP-jwkgH-8" value="Answer 4 = Number1 * Number 2" style="rounded=0;whiteSpace=wrap;html=1;" vertex="1" parent="WIyWlLk6GJQsqaUBKTNV-1">
          <mxGeometry x="250" y="310" width="200" height="30" as="geometry" />
        </mxCell>
        <mxCell id="RHoJOa1FBb7VlP-jwkgH-10" value="" style="endArrow=classic;html=1;rounded=0;exitX=0.5;exitY=1;exitDx=0;exitDy=0;entryX=0.5;entryY=0;entryDx=0;entryDy=0;" edge="1" parent="WIyWlLk6GJQsqaUBKTNV-1" source="RHoJOa1FBb7VlP-jwkgH-3" target="RHoJOa1FBb7VlP-jwkgH-6">
          <mxGeometry width="50" height="50" relative="1" as="geometry">
            <mxPoint x="363.5" y="160" as="sourcePoint" />
            <mxPoint x="380" y="210" as="targetPoint" />
          </mxGeometry>
        </mxCell>
        <mxCell id="RHoJOa1FBb7VlP-jwkgH-11" value="" style="endArrow=classic;html=1;rounded=0;exitX=0.5;exitY=1;exitDx=0;exitDy=0;entryX=0.5;entryY=0;entryDx=0;entryDy=0;startArrow=none;" edge="1" parent="WIyWlLk6GJQsqaUBKTNV-1" source="RHoJOa1FBb7VlP-jwkgH-6">
          <mxGeometry width="50" height="50" relative="1" as="geometry">
            <mxPoint x="360" y="210" as="sourcePoint" />
            <mxPoint x="360" y="230" as="targetPoint" />
          </mxGeometry>
        </mxCell>
        <mxCell id="RHoJOa1FBb7VlP-jwkgH-12" value="" style="endArrow=classic;html=1;rounded=0;entryX=0.5;entryY=0;entryDx=0;entryDy=0;exitX=0.5;exitY=1;exitDx=0;exitDy=0;" edge="1" parent="WIyWlLk6GJQsqaUBKTNV-1" source="RHoJOa1FBb7VlP-jwkgH-6" target="RHoJOa1FBb7VlP-jwkgH-7">
          <mxGeometry width="50" height="50" relative="1" as="geometry">
            <mxPoint x="350" y="250" as="sourcePoint" />
            <mxPoint x="349.5" y="260" as="targetPoint" />
          </mxGeometry>
        </mxCell>
        <mxCell id="RHoJOa1FBb7VlP-jwkgH-13" value="" style="endArrow=none;html=1;rounded=0;exitX=0.5;exitY=1;exitDx=0;exitDy=0;entryX=0.5;entryY=0;entryDx=0;entryDy=0;" edge="1" parent="WIyWlLk6GJQsqaUBKTNV-1" target="RHoJOa1FBb7VlP-jwkgH-6">
          <mxGeometry width="50" height="50" relative="1" as="geometry">
            <mxPoint x="360" y="210" as="sourcePoint" />
            <mxPoint x="360" y="230" as="targetPoint" />
          </mxGeometry>
        </mxCell>
        <mxCell id="RHoJOa1FBb7VlP-jwkgH-6" value="Answer 2 = Number1 - Number 2" style="rounded=0;whiteSpace=wrap;html=1;" vertex="1" parent="WIyWlLk6GJQsqaUBKTNV-1">
          <mxGeometry x="250" y="210" width="200" height="30" as="geometry" />
        </mxCell>
        <mxCell id="RHoJOa1FBb7VlP-jwkgH-14" value="" style="endArrow=classic;html=1;rounded=0;entryX=0.5;entryY=0;entryDx=0;entryDy=0;" edge="1" parent="WIyWlLk6GJQsqaUBKTNV-1">
          <mxGeometry width="50" height="50" relative="1" as="geometry">
            <mxPoint x="350" y="290" as="sourcePoint" />
            <mxPoint x="350" y="312" as="targetPoint" />
          </mxGeometry>
        </mxCell>
        <mxCell id="RHoJOa1FBb7VlP-jwkgH-17" value="" style="endArrow=classic;html=1;rounded=0;exitX=0.5;exitY=1;exitDx=0;exitDy=0;" edge="1" parent="WIyWlLk6GJQsqaUBKTNV-1">
          <mxGeometry width="50" height="50" relative="1" as="geometry">
            <mxPoint x="350" y="339" as="sourcePoint" />
            <mxPoint x="350" y="369" as="targetPoint" />
          </mxGeometry>
        </mxCell>
        <mxCell id="RHoJOa1FBb7VlP-jwkgH-18" value="Display Answer 1, &lt;br&gt;Answer 2, &lt;br&gt;Answer 3 and Answer 4" style="shape=parallelogram;perimeter=parallelogramPerimeter;whiteSpace=wrap;html=1;fixedSize=1;" vertex="1" parent="WIyWlLk6GJQsqaUBKTNV-1">
          <mxGeometry x="240" y="369" width="230" height="41" as="geometry" />
        </mxCell>
        <mxCell id="RHoJOa1FBb7VlP-jwkgH-19" value="" style="endArrow=classic;html=1;rounded=0;exitX=0.5;exitY=1;exitDx=0;exitDy=0;" edge="1" parent="WIyWlLk6GJQsqaUBKTNV-1">
          <mxGeometry width="50" height="50" relative="1" as="geometry">
            <mxPoint x="350" y="408" as="sourcePoint" />
            <mxPoint x="350" y="438" as="targetPoint" />
          </mxGeometry>
        </mxCell>
        <mxCell id="RHoJOa1FBb7VlP-jwkgH-20" value="End" style="ellipse;whiteSpace=wrap;html=1;" vertex="1" parent="WIyWlLk6GJQsqaUBKTNV-1">
          <mxGeometry x="292" y="438" width="120" height="40" as="geometry" />
        </mxCell>
      </root>
    </mxGraphModel>
  </diagram>
</mxfile>
